<svg t="1595516559759" class="icon" viewBox="0 0 1462 1024" version="1.1" xmlns="http://www.w3.org/2000/svg" p-id="19330" id="mx_n_1595516559760" width="16" height="16"><path d="M1389.714286 146.285714H74.517943C37.215086 146.285714 2.896457 115.887543 0.2048 78.555429A73.142857 73.142857 0 0 1 73.142857 0h1315.0208c37.419886 0 71.767771 30.398171 74.430172 67.730286A73.142857 73.142857 0 0 1 1389.714286 146.285714z" p-id="19331"></path><path d="M731.428571 585.142857H74.517943C37.215086 585.142857 2.896457 554.744686 0.2048 517.412571A73.142857 73.142857 0 0 1 73.142857 438.857143h656.735086c37.419886 0 71.738514 30.398171 74.430171 67.701028A73.142857 73.142857 0 0 1 731.428571 585.142857z" p-id="19332" data-spm-anchor-id="a313x.7781069.0.i59" class="selected" fill="#1296db"></path><path d="M1389.714286 1024H74.517943C37.215086 1024 2.896457 993.601829 0.2048 956.298971A73.142857 73.142857 0 0 1 73.142857 877.714286h1315.0208c37.419886 0 71.738514 30.398171 74.430172 67.701028A73.142857 73.142857 0 0 1 1389.714286 1024z" p-id="19333"></path></svg>