<svg t="1595516888393" class="icon" viewBox="0 0 1024 1024" version="1.1" xmlns="http://www.w3.org/2000/svg" p-id="3849" width="48" height="48"><path d="M512 166.6c190.5 0 345.4 154.9 345.4 345.4S702.5 857.4 512 857.4 166.6 702.5 166.6 512 321.5 166.6 512 166.6m0-81.3c-235.6 0-426.7 191-426.7 426.7s191 426.7 426.7 426.7 426.7-191 426.7-426.7S747.7 85.3 512 85.3" fill="#2c2c2c" p-id="3850" data-spm-anchor-id="a313x.7781069.0.i36" class="selected"></path><path d="M512 256c29.5 0 53.3 23.9 53.3 53.3s-23.9 53.3-53.3 53.3c-29.5 0-53.3-23.9-53.3-53.3S482.5 256 512 256z m0 170.7c23.6 0 42.7 19.1 42.7 42.7v256c0 23.6-19.1 42.7-42.7 42.7s-42.7-19.1-42.7-42.7v-256c0-23.6 19.1-42.7 42.7-42.7z" fill="#1296db" p-id="3851" data-spm-anchor-id="a313x.7781069.0.i35" class=""></path></svg>