<svg t="1595516969752" class="icon" viewBox="0 0 1024 1024" version="1.1" xmlns="http://www.w3.org/2000/svg" p-id="4332" width="48" height="48"><path d="M512 981.3c-11.3 0-22.1-4.5-30.2-12.5L369.4 856.4H210.3c-23.6 0-42.7-19.1-42.7-42.7V654.6L55.2 542.2c-16.6-16.6-16.6-43.6 0-60.3l112.5-112.5V210.3c0-23.6 19.1-42.7 42.7-42.7h159.1L481.8 55.2c16.7-16.6 43.7-16.6 60.3 0l112.5 112.5h159.1c23.6 0 42.7 19.1 42.7 42.7v159.1L968.8 482c16.7 16.7 16.7 43.7 0 60.3L856.4 654.6v159.1c0 23.6-19.1 42.7-42.7 42.7H654.6L542.1 968.8c-7.9 8-18.8 12.5-30.1 12.5zM253 771h134.1c11.3 0 22.1 4.5 30.2 12.5l94.8 94.8 94.8-94.8c8-8 18.8-12.5 30.2-12.5h134.1V637c0-11.3 4.5-22.2 12.5-30.2l94.8-94.8-94.8-94.8c-8-8-12.5-18.9-12.5-30.2V253H637c-11.3 0-22.2-4.5-30.2-12.5L512 145.7l-94.8 94.8c-8 8-18.9 12.5-30.2 12.5H253v134c0 11.3-4.5 22.2-12.5 30.2L145.6 512l94.8 94.8c8 8 12.5 18.9 12.5 30.2v134z" fill="#2c2c2c" p-id="4333" data-spm-anchor-id="a313x.7781069.0.i44" class="selected"></path><path d="M512 682.7c-94.1 0-170.7-76.5-170.7-170.7S417.9 341.3 512 341.3 682.7 417.8 682.7 512 606.1 682.7 512 682.7m0-256c-47.1 0-85.3 38.3-85.3 85.3 0 47.1 38.3 85.3 85.3 85.3 47.1 0 85.3-38.3 85.3-85.3 0-47.1-38.2-85.3-85.3-85.3" fill="#1296db" p-id="4334" data-spm-anchor-id="a313x.7781069.0.i43" class=""></path></svg>