<?xml version="1.0" standalone="no"?><!DOCTYPE svg PUBLIC "-//W3C//DTD SVG 1.1//EN" "http://www.w3.org/Graphics/SVG/1.1/DTD/svg11.dtd"><svg t="1593511860133" class="icon" viewBox="0 0 1024 1024" version="1.1" xmlns="http://www.w3.org/2000/svg" p-id="5983" xmlns:xlink="http://www.w3.org/1999/xlink" width="200" height="200"><defs><style type="text/css"></style></defs><path d="M968.347826 356.173913c-28.93913 0-51.2 22.26087-51.2 51.2l0 507.547826L104.626087 914.921739 104.626087 407.373913c0-28.93913-22.26087-51.2-51.2-51.2s-51.2 22.26087-51.2 51.2l0 558.747826c0 28.93913 22.26087 51.2 51.2 51.2l914.921739 0c28.93913 0 51.2-22.26087 51.2-51.2L1019.547826 407.373913C1019.547826 378.434783 997.286957 356.173913 968.347826 356.173913zM313.878261 304.973913c13.356522 0 26.713043-4.452174 35.617391-15.582609l111.304348-111.304348 0 318.330435c0 28.93913 22.26087 51.2 51.2 51.2s51.2-22.26087 51.2-51.2L563.2 180.313043l111.304348 111.304348c8.904348 8.904348 22.26087 15.582609 35.617391 15.582609 13.356522 0 26.713043-4.452174 35.617391-15.582609 20.034783-20.034783 20.034783-51.2 0-71.234783L547.617391 22.26087c-8.904348-8.904348-22.26087-15.582609-35.617391-15.582609-13.356522 0-26.713043 4.452174-35.617391 15.582609l-195.895652 195.895652c-20.034783 20.034783-20.034783 51.2 0 71.234783C289.391304 300.521739 302.747826 304.973913 313.878261 304.973913z" p-id="5984" fill="#000000"></path></svg>